<?xml version="1.0" encoding="UTF-8"?>
<svg width="885px" height="311px" viewBox="0 0 885 311" version="1.1" xmlns="http://www.w3.org/2000/svg" xmlns:xlink="http://www.w3.org/1999/xlink">
    <title>Group 2</title>
    <g id="branding" stroke="none" stroke-width="1" fill="none" fill-rule="evenodd">
        <g id="Artboard" transform="translate(-432.000000, -417.000000)">
            <g id="Group-2" transform="translate(432.000000, 417.000000)">
                <g id="Group" fill="#FAFAFA">
                    <rect id="Rectangle" x="154" y="228" width="115" height="31.5" rx="8"></rect>
                    <path d="M116.8,87.5864 L147.151,87.5864 L144.253,98.8768 L114.584,98.8768 C108.673,129.555 98.8966,169.927 85.2558,219.992 C74.5703,258.882 62.9187,284.485 50.3009,296.801 C40.7522,306.267 30.9194,311 20.8024,311 C14.4366,311 9.37812,309.232 5.62688,305.697 C1.87562,302.276 0,298.056 0,293.038 C0,288.59 1.30725,284.941 3.92176,282.09 C6.64995,279.239 9.71917,277.813 13.1294,277.813 C16.0849,277.813 18.6426,278.839 20.8024,280.892 C23.0759,282.945 24.2126,285.112 24.2126,287.393 C24.2126,289.902 23.4169,292.069 21.8255,293.893 C20.6887,295.262 20.1204,296.345 20.1204,297.144 C20.1204,298.056 20.5182,298.854 21.3139,299.539 C22.1096,300.337 23.1327,300.736 24.3832,300.736 C26.6566,300.736 28.7596,300.166 30.6921,299.025 C34.1023,297.086 37.4557,293.437 40.7523,288.077 C44.0488,282.717 47.459,272.624 50.9829,257.798 C51.6649,255.289 56.5529,231.625 65.6469,186.805 C66.4426,182.814 73.4335,153.504 86.6198,98.8768 L56.4393,98.8768 L58.997,87.5864 C70.2507,86.7882 77.2985,85.9329 80.1404,85.0204 C83.0959,83.9941 85.5399,82.1694 87.4724,79.5462 C90.4279,75.6688 93.8381,68.0279 97.7031,56.6232 C106.001,32.4459 113.958,16.9359 121.575,10.093 C129.077,3.36455 137.432,0 146.64,0 C153.688,0 159.314,1.88198 163.521,5.64522 C167.84,9.40892 170,13.9137 170,19.1595 C170,23.1513 168.863,26.3445 166.59,28.7393 C164.316,31.1344 161.588,32.3319 158.405,32.3317 C155.45,32.3319 152.892,31.3625 150.732,29.4235 C148.686,27.3709 147.663,25.1471 147.663,22.7519 C147.663,20.9274 148.288,18.9887 149.539,16.9356 C150.789,14.769 151.414,13.2294 151.414,12.3168 C151.414,11.0626 150.903,9.97914 149.88,9.06655 C148.856,8.26847 147.379,7.86932 145.446,7.86909 C141.809,7.8693 138.512,9.23785 135.557,11.9747 C131.578,15.7384 128.963,20.5283 127.713,26.3443 C124.644,40.1439 121.006,60.5579 116.8,87.5864 Z" id="Path" fill-rule="nonzero"></path>
                </g>
                <text id="uctionary" font-family="Poppins-Medium, Poppins" font-size="152" font-weight="400" fill="#E4E4E7">
                    <tspan x="152" y="209">uctionary</tspan>
                </text>
            </g>
        </g>
    </g>
</svg>