<svg width="512" height="512" viewBox="0 0 512 512" fill="none" xmlns="http://www.w3.org/2000/svg">
<g clip-path="url(#clip0_1619_166)">
<path fill-rule="evenodd" clip-rule="evenodd" d="M488 0H24C10.7452 0 0 10.7452 0 24V488C0 501.255 10.7452 512 24 512H488C501.255 512 512 501.255 512 488V24C512 10.7452 501.255 0 488 0ZM375 328H276C271.582 328 268 331.582 268 336V351.5C268 355.918 271.582 359.5 276 359.5H375C379.418 359.5 383 355.918 383 351.5V336C383 331.582 379.418 328 375 328ZM261.151 187.586H230.8C235.006 160.558 238.644 140.144 241.713 126.344C242.963 120.528 245.578 115.738 249.557 111.975C252.512 109.238 255.809 107.869 259.446 107.869C261.379 107.869 262.856 108.268 263.88 109.067C264.903 109.979 265.414 111.063 265.414 112.317C265.414 113.229 264.789 114.769 263.539 116.936C262.288 118.989 261.663 120.927 261.663 122.752C261.663 125.147 262.686 127.371 264.732 129.423C266.892 131.362 269.45 132.332 272.405 132.332C275.588 132.332 278.316 131.134 280.59 128.739C282.863 126.345 284 123.151 284 119.16C284 113.914 281.84 109.409 277.521 105.645C273.314 101.882 267.688 100 260.64 100C251.432 100 243.077 103.365 235.575 110.093C227.958 116.936 220.001 132.446 211.703 156.623C207.838 168.028 204.428 175.669 201.472 179.546C199.54 182.169 197.096 183.994 194.14 185.02C191.298 185.933 184.251 186.788 172.997 187.586L170.439 198.877H200.62C187.434 253.504 180.443 282.814 179.647 286.805C170.553 331.625 165.665 355.289 164.983 357.798C161.459 372.624 158.049 382.717 154.752 388.077C151.456 393.437 148.102 397.086 144.692 399.025C142.76 400.166 140.657 400.736 138.383 400.736C137.133 400.736 136.11 400.337 135.314 399.539C134.518 398.854 134.12 398.056 134.12 397.144C134.12 396.345 134.689 395.262 135.826 393.893C137.417 392.069 138.213 389.902 138.213 387.393C138.213 385.112 137.076 382.945 134.802 380.892C132.643 378.839 130.085 377.813 127.129 377.813C123.719 377.813 120.65 379.239 117.922 382.09C115.307 384.941 114 388.59 114 393.038C114 398.056 115.876 402.276 119.627 405.697C123.378 409.232 128.437 411 134.802 411C144.919 411 154.752 406.267 164.301 396.801C176.919 384.485 188.57 358.882 199.256 319.992C212.897 269.927 222.673 229.555 228.584 198.877H258.253L261.151 187.586Z" fill="#181816"/>
</g>
<defs>
<clipPath id="clip0_1619_166">
<rect width="512" height="512" fill="white"/>
</clipPath>
</defs>
</svg>
